<mxfile>
  <diagram id="ENvBK3eRWGplICkuHEvk" name="Page-1">
    <mxGraphModel dx="768" dy="1711" grid="1" gridSize="10" guides="1" tooltips="1" connect="1" arrows="1" fold="1" page="1" pageScale="1" pageWidth="850" pageHeight="1100" math="0" shadow="0">
      <root>
        <mxCell id="0" />
        <mxCell id="1" parent="0" />
        <mxCell id="3" value="&amp;nbsp;INICIO DE SESION:&lt;div&gt;-Ingreso de usuario.&lt;/div&gt;&lt;div&gt;-Registro de usuario.&lt;/div&gt;&lt;div&gt;-¿Se te olvidó tu contraseña?&lt;/div&gt;&lt;div&gt;-Ayudas o reclamos.&lt;/div&gt;" style="rounded=0;whiteSpace=wrap;html=1;" vertex="1" parent="1">
          <mxGeometry x="210" y="-370" width="200" height="120" as="geometry" />
        </mxCell>
        <mxCell id="4" value="" style="endArrow=classic;html=1;exitX=0.772;exitY=0.063;exitDx=0;exitDy=0;entryX=0.039;entryY=0.754;entryDx=0;entryDy=0;entryPerimeter=0;exitPerimeter=0;" edge="1" parent="1" source="31" target="6">
          <mxGeometry width="50" height="50" relative="1" as="geometry">
            <mxPoint x="490" y="-350.5" as="sourcePoint" />
            <mxPoint x="570" y="-350.5" as="targetPoint" />
            <Array as="points" />
          </mxGeometry>
        </mxCell>
        <mxCell id="6" value="Usuario Host:&lt;div&gt;-Publicar arriendos.&lt;/div&gt;&lt;div&gt;-Arrendar.&lt;/div&gt;&lt;div&gt;-Evaluar al usuario que arrienda.&lt;/div&gt;" style="ellipse;whiteSpace=wrap;html=1;" vertex="1" parent="1">
          <mxGeometry x="550" y="-370" width="170" height="130" as="geometry" />
        </mxCell>
        <mxCell id="8" value="Usuario Arrendatario:&lt;div&gt;-Arrendar.&lt;/div&gt;&lt;div&gt;-Evaluar el arriendo.&lt;/div&gt;" style="ellipse;whiteSpace=wrap;html=1;" vertex="1" parent="1">
          <mxGeometry x="550" y="-180" width="150" height="120" as="geometry" />
        </mxCell>
        <mxCell id="9" value="" style="endArrow=classic;html=1;exitX=0.972;exitY=0.313;exitDx=0;exitDy=0;entryX=0;entryY=0.5;entryDx=0;entryDy=0;exitPerimeter=0;" edge="1" parent="1" source="31" target="8">
          <mxGeometry width="50" height="50" relative="1" as="geometry">
            <mxPoint x="373" y="-289" as="sourcePoint" />
            <mxPoint x="685" y="-170" as="targetPoint" />
          </mxGeometry>
        </mxCell>
        <mxCell id="11" value="" style="endArrow=classic;html=1;exitX=1;exitY=0;exitDx=0;exitDy=0;" edge="1" parent="1" source="3" target="12">
          <mxGeometry width="50" height="50" relative="1" as="geometry">
            <mxPoint x="481.79999999999995" y="-369.99999999999994" as="sourcePoint" />
            <mxPoint x="480" y="-440" as="targetPoint" />
          </mxGeometry>
        </mxCell>
        <mxCell id="12" value="Registro de usuario:&lt;br&gt;-Indentificar el tipo de usuario que se crea.(formulario)." style="ellipse;whiteSpace=wrap;html=1;" vertex="1" parent="1">
          <mxGeometry x="470" y="-580" width="135" height="130" as="geometry" />
        </mxCell>
        <mxCell id="13" value="" style="endArrow=classic;html=1;exitX=0;exitY=0;exitDx=0;exitDy=0;entryX=0.691;entryY=0.975;entryDx=0;entryDy=0;entryPerimeter=0;" edge="1" parent="1" source="3" target="14">
          <mxGeometry width="50" height="50" relative="1" as="geometry">
            <mxPoint x="340" y="-390" as="sourcePoint" />
            <mxPoint x="270" y="-420" as="targetPoint" />
          </mxGeometry>
        </mxCell>
        <mxCell id="14" value="¿Se te olvidó tu contraseña?:&lt;br&gt;-Modificar contraseña." style="ellipse;whiteSpace=wrap;html=1;" vertex="1" parent="1">
          <mxGeometry x="30" y="-550" width="160" height="110" as="geometry" />
        </mxCell>
        <mxCell id="15" value="Ayuda o reclamos:&lt;div&gt;-Dejar comentarios y correo para atender solicitud.&lt;/div&gt;" style="ellipse;whiteSpace=wrap;html=1;" vertex="1" parent="1">
          <mxGeometry x="10" y="-180" width="180" height="140" as="geometry" />
        </mxCell>
        <mxCell id="16" value="" style="endArrow=classic;html=1;exitX=0;exitY=1;exitDx=0;exitDy=0;entryX=0.788;entryY=0.063;entryDx=0;entryDy=0;entryPerimeter=0;" edge="1" parent="1" source="3" target="15">
          <mxGeometry width="50" height="50" relative="1" as="geometry">
            <mxPoint x="190" y="-210" as="sourcePoint" />
            <mxPoint x="240" y="-260" as="targetPoint" />
          </mxGeometry>
        </mxCell>
        <mxCell id="17" value="" style="endArrow=classic;html=1;exitX=1;exitY=0.5;exitDx=0;exitDy=0;entryX=0;entryY=0.5;entryDx=0;entryDy=0;" edge="1" parent="1" source="6" target="18">
          <mxGeometry width="50" height="50" relative="1" as="geometry">
            <mxPoint x="960" y="-280" as="sourcePoint" />
            <mxPoint x="880" y="-305" as="targetPoint" />
          </mxGeometry>
        </mxCell>
        <mxCell id="18" value="Publicar arriendos:&amp;nbsp;&lt;div&gt;-ubi&lt;/div&gt;&lt;div&gt;-tarifa depende por host.&lt;/div&gt;&lt;div&gt;-categoría de vehiculo.&lt;/div&gt;&lt;div&gt;-imagenes.&lt;/div&gt;&lt;div&gt;-medio de pago.&lt;/div&gt;" style="shape=parallelogram;perimeter=parallelogramPerimeter;whiteSpace=wrap;html=1;fixedSize=1;" vertex="1" parent="1">
          <mxGeometry x="860" y="-352.5" width="190" height="95" as="geometry" />
        </mxCell>
        <mxCell id="19" value="" style="endArrow=classic;html=1;entryX=0;entryY=0.5;entryDx=0;entryDy=0;exitX=1;exitY=0.5;exitDx=0;exitDy=0;" edge="1" parent="1" source="8" target="21">
          <mxGeometry width="50" height="50" relative="1" as="geometry">
            <mxPoint x="760" y="-110" as="sourcePoint" />
            <mxPoint x="840" y="-110" as="targetPoint" />
          </mxGeometry>
        </mxCell>
        <mxCell id="21" value="Arriendo de estacionamiento:&lt;div&gt;*Se filtra por:&lt;/div&gt;&lt;div&gt;-tarifa.&lt;/div&gt;&lt;div&gt;&lt;span style=&quot;background-color: transparent;&quot;&gt;-ubi.&lt;/span&gt;&lt;/div&gt;&lt;div&gt;&lt;span style=&quot;white-space: pre;&quot;&gt;&#x9;&lt;/span&gt;-categoria de vehiculo.&lt;/div&gt;&lt;div&gt;-evaluacion.&lt;/div&gt;&lt;div&gt;-medio de pago.&lt;/div&gt;" style="shape=parallelogram;perimeter=parallelogramPerimeter;whiteSpace=wrap;html=1;fixedSize=1;align=center;" vertex="1" parent="1">
          <mxGeometry x="840" y="-180" width="210" height="110" as="geometry" />
        </mxCell>
        <mxCell id="24" value="" style="endArrow=classic;html=1;exitX=1;exitY=1;exitDx=0;exitDy=0;entryX=0.11;entryY=0.009;entryDx=0;entryDy=0;entryPerimeter=0;" edge="1" parent="1" source="6" target="21">
          <mxGeometry width="50" height="50" relative="1" as="geometry">
            <mxPoint x="800" y="-215" as="sourcePoint" />
            <mxPoint x="850" y="-265" as="targetPoint" />
          </mxGeometry>
        </mxCell>
        <mxCell id="25" value="" style="endArrow=classic;html=1;exitX=1;exitY=0.5;exitDx=0;exitDy=0;entryX=0;entryY=0.5;entryDx=0;entryDy=0;" edge="1" parent="1" source="21" target="26">
          <mxGeometry width="50" height="50" relative="1" as="geometry">
            <mxPoint x="1080" y="-85" as="sourcePoint" />
            <mxPoint x="1149" y="-105" as="targetPoint" />
          </mxGeometry>
        </mxCell>
        <mxCell id="26" value="Pago de arriendo:&lt;div&gt;-check in/out.&lt;/div&gt;&lt;div&gt;-calculo total.&lt;/div&gt;&lt;div&gt;-pago.&lt;/div&gt;&lt;div&gt;-enviar registro al correo.(detalle boleta)&lt;/div&gt;" style="rounded=1;whiteSpace=wrap;html=1;" vertex="1" parent="1">
          <mxGeometry x="1150" y="-175" width="210" height="100" as="geometry" />
        </mxCell>
        <mxCell id="28" value="" style="endArrow=classic;html=1;exitX=1;exitY=0.5;exitDx=0;exitDy=0;" edge="1" parent="1" source="26" target="29">
          <mxGeometry width="50" height="50" relative="1" as="geometry">
            <mxPoint x="1390" y="-100" as="sourcePoint" />
            <mxPoint x="1450" y="-110" as="targetPoint" />
          </mxGeometry>
        </mxCell>
        <mxCell id="29" value="evaluación arriendo:&lt;div&gt;-Reseña.&lt;/div&gt;&lt;div&gt;-puntuación.&lt;/div&gt;&lt;div&gt;*para ambos usuarios.&lt;/div&gt;" style="ellipse;whiteSpace=wrap;html=1;aspect=fixed;" vertex="1" parent="1">
          <mxGeometry x="1450" y="-195" width="140" height="140" as="geometry" />
        </mxCell>
        <mxCell id="30" value="" style="endArrow=classic;html=1;exitX=0.5;exitY=1;exitDx=0;exitDy=0;" edge="1" parent="1" source="3" target="31">
          <mxGeometry width="50" height="50" relative="1" as="geometry">
            <mxPoint x="410" y="-180" as="sourcePoint" />
            <mxPoint x="410" y="-150" as="targetPoint" />
          </mxGeometry>
        </mxCell>
        <mxCell id="31" value="Perfil de usuario:&lt;div&gt;&lt;br&gt;&lt;/div&gt;" style="ellipse;whiteSpace=wrap;html=1;" vertex="1" parent="1">
          <mxGeometry x="265" y="-160" width="160" height="115" as="geometry" />
        </mxCell>
      </root>
    </mxGraphModel>
  </diagram>
</mxfile>
